<?xml version="1.0" encoding="UTF-8" standalone="no"?>
<!-- Created with Inkscape (http://www.inkscape.org/) -->

<svg
   xmlns:dc="http://purl.org/dc/elements/1.1/"
   xmlns:cc="http://creativecommons.org/ns#"
   xmlns:rdf="http://www.w3.org/1999/02/22-rdf-syntax-ns#"
   xmlns:svg="http://www.w3.org/2000/svg"
   xmlns="http://www.w3.org/2000/svg"
   xmlns:sodipodi="http://sodipodi.sourceforge.net/DTD/sodipodi-0.dtd"
   xmlns:inkscape="http://www.inkscape.org/namespaces/inkscape"
   width="210mm"
   height="297mm"
   id="svg2"
   version="1.1"
   inkscape:version="0.48.4 r9939"
   sodipodi:docname="design.svg">
  <defs
     id="defs4" />
  <sodipodi:namedview
     id="base"
     pagecolor="#ffffff"
     bordercolor="#666666"
     borderopacity="1.0"
     inkscape:pageopacity="0.0"
     inkscape:pageshadow="2"
     inkscape:zoom="0.22080511"
     inkscape:cx="526.54275"
     inkscape:cy="136.83188"
     inkscape:document-units="px"
     inkscape:current-layer="layer1"
     showgrid="false"
     inkscape:window-width="1920"
     inkscape:window-height="1140"
     inkscape:window-x="1366"
     inkscape:window-y="27"
     inkscape:window-maximized="1" />
  <metadata
     id="metadata7">
    <rdf:RDF>
      <cc:Work
         rdf:about="">
        <dc:format>image/svg+xml</dc:format>
        <dc:type
           rdf:resource="http://purl.org/dc/dcmitype/StillImage" />
        <dc:title></dc:title>
      </cc:Work>
    </rdf:RDF>
  </metadata>
  <g
     inkscape:label="Capa 1"
     inkscape:groupmode="layer"
     id="layer1">
    <path
       style="fill:#555753;fill-opacity:1;fill-rule:nonzero;stroke:none"
       d="M 76.25 324.71875 C 58.665627 324.71875 44.5 338.88438 44.5 356.46875 L 44.5 609.46875 C 44.5 627.05312 58.665627 641.1875 76.25 641.1875 L 332.03125 641.1875 C 349.61562 641.1875 363.78125 627.05312 363.78125 609.46875 L 363.78125 449.625 L 234.28125 579.125 L 200.125 613.3125 L 165.9375 579.125 L 69.4375 482.65625 L 137.78125 414.3125 L 200.125 476.625 L 347.8125 328.90625 C 343.16829 326.25025 337.78562 324.71875 332.03125 324.71875 L 76.25 324.71875 z "
       id="rect2991"
       inkscape:export-filename="/home/danigm/Projects/Ftask/design/logo.png"
       inkscape:export-xdpi="7.0010481"
       inkscape:export-ydpi="7.0010481" />
    <path
       style="font-size:329.52883911px;font-style:normal;font-variant:normal;font-weight:normal;font-stretch:normal;text-align:center;line-height:125%;writing-mode:lr-tb;text-anchor:middle;fill:#555753;fill-opacity:1;fill-rule:nonzero;stroke:none;font-family:Metamorphous;-inkscape-font-specification:Metamorphous"
       d="M 1234.9375 320.96875 L 1234.9375 334.625 C 1241.0518 335.1616 1245.9153 335.81188 1249.5625 336.5625 C 1253.2096 337.20637 1256.2828 338.75183 1258.75 341.21875 C 1261.3244 343.68618 1262.5937 351.0039 1262.5938 363.125 L 1262.5938 553.3125 C 1262.5937 565.43387 1261.0972 573.19243 1258.0938 576.625 C 1256.0556 578.87766 1250.1677 580.65029 1240.4062 581.9375 L 1234.9375 582.75 L 1234.9375 596.09375 L 1323.0938 596.09375 L 1323.0938 582.75 L 1317 581.78125 C 1312.1728 581.03039 1308.3024 580.33113 1305.4062 579.6875 C 1302.6172 578.93664 1300.1943 577.44016 1298.1562 575.1875 C 1296.2253 572.82762 1295.2812 565.54114 1295.2812 553.3125 L 1295.2812 363.125 C 1295.2812 350.78937 1296.8756 343.1465 1300.0938 340.25 C 1302.0245 338.42669 1304.8215 337.20637 1308.4688 336.5625 C 1312.1158 335.91915 1316.9794 335.26887 1323.0938 334.625 L 1323.0938 320.96875 L 1234.9375 320.96875 z M 390.21875 349.90625 L 419.625 379.3125 L 419.625 367.9375 L 492.6875 367.9375 C 507.91946 367.93773 518.14992 369.43421 523.40625 372.4375 C 526.51686 374.15402 528.71259 376.57693 530 379.6875 C 531.3943 382.69123 532.09356 386.98475 532.09375 392.5625 C 532.09356 398.14066 530.9712 406.9726 528.71875 419.09375 L 544 419.09375 L 560.90625 349.90625 L 390.21875 349.90625 z M 591 349.90625 L 572.96875 418.9375 L 588.75 418.9375 L 590.6875 413.96875 C 593.36918 407.31829 596.03701 401.07394 598.71875 395.28125 C 607.30019 376.40221 621.25411 366.96898 640.5625 366.96875 L 671.4375 366.96875 L 671.4375 552.8125 C 671.43739 559.03411 670.96531 563.92892 670 567.46875 C 669.14175 570.90137 666.94601 573.74738 663.40625 576 C 659.97356 578.25266 648.76769 580.2702 629.78125 582.09375 L 629.78125 596.09375 L 747.21875 596.09375 L 747.21875 582.09375 C 737.24261 581.12835 729.38608 580.23316 723.59375 579.375 C 717.90837 578.51687 713.61485 577.16733 710.71875 575.34375 C 707.82236 573.52021 706.00074 570.90137 705.25 567.46875 C 704.49898 563.92892 704.12486 559.03411 704.125 552.8125 L 704.125 366.96875 L 731.3125 366.96875 C 746.32991 366.96898 756.51138 368.59467 761.875 371.8125 C 764.98559 373.63629 767.18133 376.15716 768.46875 379.375 C 769.86304 382.486 770.56229 386.87748 770.5625 392.5625 C 770.56229 398.14066 769.43993 406.9726 767.1875 419.09375 L 782.625 419.09375 L 799.53125 349.90625 L 591 349.90625 z M 419.625 393.8125 L 387.125 426.3125 L 387.125 553.46875 C 387.12496 565.48285 385.53052 573.04549 382.3125 576.15625 C 380.38163 578.0871 377.5846 579.48562 373.9375 580.34375 C 370.29035 581.09464 365.42678 581.89187 359.3125 582.75 L 359.3125 596.09375 L 464.6875 596.09375 L 464.6875 582.75 C 454.38961 581.7846 446.22569 580.85816 440.21875 580 C 434.21163 579.14187 429.6732 577.82358 426.5625 576 C 423.5589 574.17646 421.60807 571.52637 420.75 568.09375 C 419.99905 564.55392 419.62493 559.69036 419.625 553.46875 L 419.625 478.96875 L 511.1875 478.96875 L 515.53125 460.625 L 419.625 460.625 L 419.625 393.8125 z M 922.46875 398.5 C 899.94228 398.5002 881.27173 402.59779 866.46875 410.75 C 859.71079 414.50458 854.44185 418.89606 850.6875 423.9375 C 846.93307 428.87202 845.06247 433.63762 845.0625 438.25 C 845.06247 442.8627 846.08686 446.6039 848.125 449.5 C 853.81019 457.97435 862.96727 463.29226 875.625 465.4375 L 886.5625 458.84375 C 882.48623 452.72959 880.46868 447.54089 880.46875 443.25 C 880.46868 438.85215 881.36387 434.98173 883.1875 431.65625 C 889.409 420.82231 900.98899 415.40643 917.9375 415.40625 C 947.65074 415.40643 962.5311 426.56332 962.53125 448.875 L 962.53125 477.03125 C 920.80369 477.88952 888.78052 486.57451 866.46875 503.09375 C 847.91126 516.60966 838.62497 531.36081 838.625 547.34375 C 838.62497 562.14684 843.94289 574.32813 854.5625 583.875 C 860.03315 588.80936 867.04346 592.77774 875.625 595.78125 C 884.20641 598.78477 894.14297 600.28125 905.40625 600.28125 C 916.66934 600.28125 932.77002 599.30583 953.6875 597.375 C 963.87786 596.51685 972.93697 596.09375 980.875 596.09375 L 1020.7812 596.09375 L 1020.7812 582.59375 C 1015.0958 582.05742 1010.5261 581.40714 1007.0938 580.65625 C 1003.7682 579.90539 1000.9222 578.27969 998.5625 575.8125 C 996.20241 573.23808 995.03107 565.75568 995.03125 553.3125 L 995.03125 452.40625 C 995.03107 444.36126 993.63255 437.02581 990.84375 430.375 C 981.94029 409.13602 959.15443 398.5002 922.46875 398.5 z M 1138.0625 398.5 C 1116.3942 398.5002 1099.0242 402.89168 1085.9375 411.6875 C 1072.2071 421.02003 1065.3437 433.47748 1065.3438 449.03125 C 1065.3437 461.5818 1070.9555 472.83665 1082.2188 482.8125 C 1087.4748 487.53242 1093.541 491.87492 1100.4062 495.84375 C 1107.3786 499.81278 1113.0217 502.83699 1117.3125 504.875 C 1121.7104 506.80592 1124.3782 507.97726 1125.3438 508.40625 C 1126.3091 508.83541 1128.683 509.85981 1132.4375 511.46875 C 1136.1918 512.97059 1141.0064 515.06837 1146.9062 517.75 C 1166.6435 526.76062 1176.5311 537.13802 1176.5312 548.9375 C 1176.5311 559.02078 1172.6607 567.08674 1164.9375 573.09375 C 1157.3213 579.1008 1146.8147 582.09376 1133.4062 582.09375 C 1120.1049 582.09376 1109.1439 578.82465 1100.5625 572.28125 C 1092.8391 566.48878 1088.9999 559.90156 1089 552.5 C 1088.9999 544.02584 1091.0175 537.26043 1095.0938 532.21875 L 1088.0312 524 C 1079.9861 525.82363 1073.0737 529.49812 1067.2812 534.96875 C 1060.8451 541.08311 1057.4958 547.99547 1057.2812 555.71875 C 1056.8521 568.80553 1064.593 579.5883 1080.4688 588.0625 C 1094.9499 596.00037 1111.8968 599.96875 1131.3125 599.96875 C 1152.1225 599.96875 1169.9156 595.02495 1184.7188 585.15625 C 1192.0128 580.32918 1197.8831 574.44122 1202.2812 567.46875 C 1206.6791 560.49633 1208.8748 553.03166 1208.875 545.09375 C 1208.8748 537.15594 1207.2001 530.48849 1203.875 525.125 C 1200.6568 519.76165 1195.3878 514.19883 1188.0938 508.40625 C 1180.7993 502.50658 1163.6075 493.44746 1136.4688 481.21875 C 1132.9288 479.60984 1128.5863 477.46308 1123.4375 474.78125 C 1105.6309 465.77083 1096.7187 455.96347 1096.7188 445.34375 C 1096.7187 436.54789 1099.7606 429.50632 1105.875 424.25 C 1108.9857 421.56846 1112.8071 419.47069 1117.3125 417.96875 C 1121.8177 416.46717 1128.258 415.71893 1136.625 415.71875 C 1144.9918 415.71893 1152.1803 417.71874 1158.1875 421.6875 C 1164.3017 425.54934 1167.3436 430.03878 1167.3438 435.1875 C 1167.3436 440.22928 1165.3261 445.92131 1161.25 452.25 L 1170.4062 458.84375 C 1176.3059 457.55667 1181.8197 454.71065 1186.9688 450.3125 C 1192.8684 445.16376 1195.8436 439.47173 1195.8438 433.25 C 1195.8436 423.38147 1190.3475 415.15083 1179.4062 408.5 C 1168.572 401.84955 1154.7963 398.5002 1138.0625 398.5 z M 1355.4375 401.5625 L 1355.4375 415.5625 C 1360.8008 415.56268 1364.9963 415.98578 1368 416.84375 C 1369.8234 417.273 1371.2709 418.02124 1372.3438 419.09375 C 1373.5236 420.05934 1374.1248 421.40888 1374.125 423.125 C 1374.1248 424.7342 1372.9223 426.83198 1370.5625 429.40625 L 1367.0312 433.25 C 1365.7439 434.53738 1364.3943 435.83794 1363 437.125 L 1358.8125 441 L 1306.5312 491.5 L 1434.7812 631.8125 L 1445.7188 622.65625 L 1347.0938 485.25 L 1396.3125 435.34375 C 1408.1118 423.43712 1422.912 416.52476 1440.7188 414.59375 L 1440.7188 401.5625 L 1355.4375 401.5625 z M 962.53125 493.59375 L 962.84375 493.75 L 962.53125 493.75 L 962.53125 550.71875 C 962.5311 557.26217 962.02777 562.62906 961.0625 566.8125 C 960.09693 570.88873 958.07939 574.10886 954.96875 576.46875 C 951.96509 578.82867 947.62259 580.50335 941.9375 581.46875 C 936.35941 582.32691 929.54502 582.75001 921.5 582.75 C 913.45476 582.75001 906.73833 581.95279 901.375 580.34375 C 884.1047 575.40942 875.46869 564.39947 875.46875 547.34375 C 875.46869 515.05601 904.4989 497.18269 962.53125 493.75 L 962.53125 493.59375 z "
       id="text2985"
       inkscape:export-filename="/home/danigm/Projects/Ftask/design/logo.png"
       inkscape:export-xdpi="7.0010481"
       inkscape:export-ydpi="7.0010481" />
    <g
       inkscape:label="status"
       style="fill:#eeeeec;display:inline"
       id="layer9"
       transform="matrix(16.057539,0,0,16.057539,-7967.3886,-7066.2917)" />
    <g
       style="fill:#eeeeec"
       inkscape:label="devices"
       id="layer10"
       transform="matrix(16.057539,0,0,16.057539,-7967.3886,-7066.2917)" />
    <g
       style="fill:#eeeeec"
       inkscape:label="apps"
       id="layer11"
       transform="matrix(16.057539,0,0,16.057539,-7967.3886,-7066.2917)" />
    <g
       style="fill:#eeeeec"
       inkscape:label="places"
       id="layer13"
       transform="matrix(16.057539,0,0,16.057539,-7967.3886,-7066.2917)" />
    <g
       style="fill:#eeeeec"
       inkscape:label="mimetypes"
       id="layer14"
       transform="matrix(16.057539,0,0,16.057539,-7967.3886,-7066.2917)" />
    <g
       inkscape:label="emblems"
       style="fill:#eeeeec;display:inline"
       id="layer15"
       transform="matrix(16.057539,0,0,16.057539,-7967.3886,-7066.2917)" />
    <g
       inkscape:label="emotes"
       style="fill:#eeeeec;display:inline"
       transform="matrix(16.057539,0,0,16.057539,-7967.3886,-7066.2917)"
       id="g71291" />
    <g
       id="g3878"
       transform="translate(339.45464,385.88948)"
       style="fill:#babdb6">
      <path
         d="m 156.22074,353.79671 a 16.059145,16.059145 0 0 0 -6.02158,30.10789 l 7.52697,4.01438 0,44.15823 c -2.02582,3.19899 -4.10671,6.00938 -7.02517,11.03956 -4.37761,7.54528 -9.74966,16.70819 -15.55574,27.0971 -11.61217,20.77765 -24.73584,45.22028 -35.12587,64.23016 -9.16275,16.76407 -9.027385,39.20271 4.51619,56.20138 0.16057,0.21036 0.34523,0.29546 0.50099,0.501 10.82086,14.2896 27.56309,18.06473 41.64924,18.06473 l 118.42435,0 c 14.08616,0 30.82839,-3.77513 41.64924,-18.06473 0.14452,-0.18466 0.35488,-0.31634 0.501,-0.501 13.42876,-16.85447 13.44353,-38.9816 4.51618,-55.69959 -0.0642,-0.14451 0.0642,-0.35968 0,-0.50099 -18.75087,-38.18274 -39.69086,-67.72845 -57.20498,-102.86861 l 0,-43.15464 8.02877,-4.51618 a 16.059145,16.059145 0 0 0 -8.02877,-30.10788 l -96.84703,0 a 16.059145,16.059145 0 0 0 -1.50459,0 z m 33.62047,32.11508 32.61688,0 0,50.17981 a 16.059145,16.059145 0 0 0 1.50459,7.02517 c 19.29538,39.45595 41.35892,69.37194 59.21217,105.8794 a 16.059145,16.059145 0 0 0 0.501,1.0036 c 3.84915,7.04267 4.17432,14.14765 -1.50459,21.07552 a 16.059145,16.059145 0 0 0 -1.0036,0.50099 c -2.31951,3.18293 -7.38085,5.51978 -16.05754,5.51978 l -118.42435,0 c -8.67669,0 -13.73802,-2.33685 -16.05754,-5.51978 a 16.059145,16.059145 0 0 0 -1.00279,-0.50099 c -5.67987,-6.92803 -5.35455,-14.03317 -1.50459,-21.07552 10.36932,-18.97166 23.60956,-43.62416 35.12587,-64.23016 5.75807,-10.303 11.32843,-19.30887 15.55574,-26.5953 4.2273,-7.28643 7.60292,-13.46617 8.02877,-14.05034 a 16.059145,16.059145 0 0 0 3.00998,-9.03237 l 0,-50.17981 z"
         inkscape:connector-curvature="0"
         style="font-size:medium;font-style:normal;font-variant:normal;font-weight:normal;font-stretch:normal;text-indent:0;text-align:start;text-decoration:none;line-height:normal;letter-spacing:normal;word-spacing:normal;text-transform:none;direction:ltr;block-progression:tb;writing-mode:lr-tb;text-anchor:start;baseline-shift:baseline;color:#000000;fill:#babdb6;fill-opacity:1;stroke:none;stroke-width:2;marker:none;visibility:visible;display:inline;overflow:visible;enable-background:accumulate;font-family:Sans;-inkscape-font-specification:Sans"
         id="path29274-9-1" />
      <path
         d="m 177.29883,496.83197 -35.62767,64.21474 128.46032,0 -35.62767,-64.21474 -57.20498,0 z"
         inkscape:connector-curvature="0"
         style="opacity:0.41600000999999998;color:#000000;fill:#babdb6;fill-opacity:1;fill-rule:nonzero;stroke:none;stroke-width:2;marker:none;visibility:visible;display:inline;overflow:visible;enable-background:accumulate"
         id="rect5725" />
    </g>
    <g
       inkscape:label="actions"
       style="fill:#eeeeec;display:inline"
       id="layer12"
       transform="matrix(16.057539,0,0,16.057539,-7967.3886,-7066.2917)" />
    <path
       inkscape:connector-curvature="0"
       d="M 286.46395,755.33424 127.65778,914.1404 65.341438,851.82406 l -68.3469578,68.34696 96.4898178,96.48988 34.173482,34.1734 34.17348,-34.1734 192.97964,-192.9797 -68.34695,-68.34696 z"
       id="path3887"
       style="font-size:medium;font-style:normal;font-variant:normal;font-weight:normal;font-stretch:normal;text-indent:0;text-align:start;text-decoration:none;line-height:normal;letter-spacing:normal;word-spacing:normal;text-transform:none;direction:ltr;block-progression:tb;writing-mode:lr-tb;text-anchor:start;baseline-shift:baseline;color:#000000;fill:#a40000;fill-opacity:1;stroke:none;stroke-width:3;marker:none;visibility:visible;display:inline;overflow:visible;enable-background:accumulate;font-family:Sans;-inkscape-font-specification:Sans" />
    <text
       sodipodi:linespacing="125%"
       id="text3889"
       y="1528.1948"
       x="590.05988"
       style="font-size:329.52883911px;font-style:normal;font-variant:normal;font-weight:normal;font-stretch:normal;text-align:center;line-height:125%;writing-mode:lr-tb;text-anchor:middle;fill:#555753;fill-opacity:1;fill-rule:nonzero;stroke:none;font-family:Metamorphous;-inkscape-font-specification:Metamorphous"
       xml:space="preserve"><tspan
         y="1528.1948"
         x="590.05988"
         id="tspan3891"
         sodipodi:role="line">FTask</tspan></text>
    <path
       inkscape:export-ydpi="7.0010481"
       inkscape:export-xdpi="7.0010481"
       inkscape:export-filename="/home/danigm/Projects/Ftask/design/logo-white.png"
       id="path2998"
       d="m 76.25,-51.178348 c -17.584373,0 -31.75,14.16563 -31.75,31.75 l 0,252.999998 c 0,17.58437 14.165627,31.71875 31.75,31.71875 l 255.78125,0 c 17.58437,0 31.75,-14.13438 31.75,-31.71875 l 0,-159.843748 -129.5,129.499998 -34.15625,34.1875 -34.1875,-34.1875 -96.5,-96.46875 L 137.78125,38.415402 200.125,100.7279 347.8125,-46.990848 c -4.64421,-2.656 -10.02688,-4.1875 -15.78125,-4.1875 l -255.78125,0 z"
       style="fill:#eeeeec;fill-opacity:1;fill-rule:nonzero;stroke:none"
       inkscape:connector-curvature="0" />
    <path
       inkscape:export-ydpi="7.0010481"
       inkscape:export-xdpi="7.0010481"
       inkscape:export-filename="/home/danigm/Projects/Ftask/design/logo-white.png"
       id="path3000"
       d="m 1234.9375,-54.928348 0,13.65625 c 6.1143,0.5366 10.9778,1.18688 14.625,1.9375 3.6471,0.64387 6.7203,2.18933 9.1875,4.65625 2.5744,2.46743 3.8437,9.78515 3.8438,21.90625 l 0,190.187498 c -1e-4,12.12137 -1.4966,19.87993 -4.5,23.3125 -2.0382,2.25266 -7.9261,4.02529 -17.6876,5.3125 l -5.4687,0.8125 0,13.34375 88.1563,0 0,-13.34375 -6.0938,-0.96875 c -4.8272,-0.75086 -8.6976,-1.45012 -11.5938,-2.09375 -2.789,-0.75086 -5.2119,-2.24734 -7.25,-4.5 -1.9309,-2.35988 -2.875,-9.64636 -2.875,-21.875 l 0,-190.187498 c 0,-12.33563 1.5944,-19.9785 4.8126,-22.875 1.9307,-1.82331 4.7277,-3.04363 8.375,-3.6875 3.647,-0.64335 8.5106,-1.29363 14.625,-1.9375 l 0,-13.65625 -88.1563,0 z m -844.71875,28.9375 29.40625,29.4062503 0,-11.375 73.0625,0 c 15.23196,2.3e-4 25.46242,1.49671 30.71875,4.5 3.11061,1.71652 5.30634,4.13943003 6.59375,7.25 1.3943,3.00373 2.09356,7.2972497 2.09375,12.8749997 -1.9e-4,5.57816 -1.12255,14.4101 -3.375,26.53125 l 15.28125,0 16.90625,-69.1875 -170.6875,0 z m 200.78125,0 -18.03125,69.03125 15.78125,0 1.9375,-4.96875 c 2.68168,-6.65046 5.34951,-12.89481 8.03125,-18.6875 8.58144,-18.87903967 22.53536,-28.3122697 41.84375,-28.3124997 l 30.875,0 0,185.8437477 c -1.1e-4,6.22161 -0.47219,11.11642 -1.4375,14.65625 -0.85825,3.43262 -3.05399,6.27863 -6.59375,8.53125 -3.43269,2.25266 -14.63856,4.2702 -33.625,6.09375 l 0,14 117.4375,0 0,-14 c -9.97614,-0.9654 -17.83267,-1.86059 -23.625,-2.71875 -5.68538,-0.85813 -9.9789,-2.20767 -12.875,-4.03125 -2.89639,-1.82354 -4.71801,-4.44238 -5.46875,-7.875 -0.75102,-3.53983 -1.12514,-8.43464 -1.125,-14.65625 l 0,-185.8437477 27.1875,0 c 15.01741,2.3e-4 25.19888,1.62592 30.5625,4.84375 3.11059,1.82379 5.30633,4.34466003 6.59375,7.5625 1.39429,3.111 2.09354,7.5024797 2.09375,13.1874997 -2.1e-4,5.57816 -1.12257,14.4101 -3.375,26.53125 l 15.4375,0 16.90625,-69.1875 -208.53125,0 z m -171.375,43.90625 -32.5,32.5 0,127.156248 c -4e-5,12.0141 -1.59448,19.57674 -4.8125,22.6875 -1.93087,1.93085 -4.7279,3.32937 -8.375,4.1875 -3.64715,0.75089 -8.51072,1.54812 -14.625,2.40625 l 0,13.34375 105.375,0 0,-13.34375 c -10.29789,-0.9654 -18.46181,-1.89184 -24.46875,-2.75 -6.00712,-0.85813 -10.54555,-2.17642 -13.65625,-4 -3.0036,-1.82354 -4.95443,-4.47363 -5.8125,-7.90625 -0.75095,-3.53983 -1.12507,-8.40339 -1.125,-14.625 l 0,-74.5 91.5625,0 4.34375,-18.343748 -95.90625,0 0,-66.8125 z m 502.84375,4.6875 c -22.52647,2e-4 -41.19702,4.09779 -56,12.25 -6.75796,3.75458 -12.0269,8.14606 -15.78125,13.1875 -3.75443,4.93452 -5.62503,9.70012 -5.625,14.3125 -3e-5,4.6127 1.02436,8.3539 3.0625,11.25 5.68519,8.47435 14.84227,13.79226 27.5,15.9375 l 10.9375,-6.59375 c -4.07627,-6.11416 -6.09382,-11.30286 -6.09375,-15.59375 -7e-5,-4.39785 0.89512,-8.26827 2.71875,-11.59375 6.2215,-10.83394 17.80149,-16.24982 34.75,-16.25 29.71324,1.8e-4 44.5936,11.15707 44.59375,33.46875 l 0,28.156248 c -41.72756,0.85827 -73.75073,9.54326 -96.0625,26.0625 -18.55749,13.51591 -27.84378,28.26706 -27.84375,44.25 -3e-5,14.80309 5.31789,26.98438 15.9375,36.53125 5.47065,4.93436 12.48096,8.90274 21.0625,11.90625 8.58141,3.00352 18.51797,4.5 29.78125,4.5 11.26309,0 27.36377,-0.97542 48.28125,-2.90625 10.19036,-0.85815 19.24947,-1.28125 27.1875,-1.28125 l 39.9062,0 0,-13.5 c -5.6854,-0.53633 -10.2551,-1.18661 -13.6874,-1.9375 -3.3256,-0.75086 -6.1716,-2.37656 -8.5313,-4.84375 -2.36009,-2.57442 -3.53143,-10.05682 -3.53125,-22.5 l 0,-100.906248 c -1.8e-4,-8.04499 -1.3987,-15.38044 -4.1875,-22.03125 -8.90346,-21.23898 -31.68932,-31.8748 -68.375,-31.875 z m 215.59375,0 c -21.6683,2e-4 -39.0383,4.39168 -52.125,13.1875 -13.7304,9.33253 -20.5938,21.78998 -20.5937,37.34375 -1e-4,12.55055 5.6117,23.8054 16.875,33.781248 5.256,4.71992 11.3222,9.06242 18.1874,13.03125 6.9724,3.96903 12.6155,6.99324 16.9063,9.03125 4.3979,1.93092 7.0657,3.10226 8.0313,3.53125 0.9653,0.42916 3.3392,1.45356 7.0937,3.0625 3.7543,1.50184 8.5689,3.59962 14.4687,6.28125 19.7373,9.01062 29.6249,19.38802 29.625,31.1875 -10e-5,10.08328 -3.8705,18.14924 -11.5937,24.15625 -7.6162,6.00705 -18.1228,9.00001 -31.5313,9 -13.3013,1e-5 -24.2623,-3.2691 -32.8437,-9.8125 -7.7234,-5.79247 -11.5626,-12.37969 -11.5625,-19.78125 -10e-5,-8.47416 2.0175,-15.23957 6.0938,-20.28125 l -7.0626,-8.21875 c -8.0451,1.82363 -14.9575,5.49812 -20.75,10.96875 -6.4361,6.11436 -9.7854,13.02672 -10,20.75 -0.4291,13.08678 7.3118,23.86955 23.1876,32.34375 14.4811,7.93787 31.428,11.90625 50.8437,11.90625 20.81,0 38.6031,-4.9438 53.4063,-14.8125 7.294,-4.82707 13.1643,-10.71503 17.5624,-17.6875 4.3979,-6.97242 6.5936,-14.43709 6.5938,-22.375 -2e-4,-7.93781 -1.6749,-14.60526 -5,-19.96875 -3.2182,-5.36335 -8.4872,-10.92617 -15.7812,-16.71875 -7.2945,-5.89967 -24.4863,-14.95879 -51.625,-27.1875 -3.54,-1.60891 -7.8825,-3.75567 -13.0313,-6.437498 -17.8066,-9.01042 -26.7188,-18.81778 -26.7187,-29.4375 -1e-4,-8.79586 3.0418,-15.83743 9.1562,-21.09375 3.1107,-2.68154 6.9321,-4.77931 11.4375,-6.28125 4.5052,-1.50158 10.9455,-2.24982 19.3125,-2.25 8.3668,1.8e-4 15.5553,1.99999 21.5625,5.96875 6.1142,3.86184 9.1561,8.35128 9.1563,13.5 -2e-4,5.04178 -2.0177,10.73381 -6.0938,17.0625 l 9.1562,6.59375 c 5.8997,-1.28708 11.4135,-4.1331 16.5626,-8.53125 5.8996,-5.14874 8.8748,-10.84077 8.875,-17.0625 -2e-4,-9.86853 -5.4963,-18.09917 -16.4376,-24.75 -10.8342,-6.65045 -24.6099,-9.9998 -41.3437,-10 z m 217.375,3.0625 0,14 c 5.3633,1.8e-4 9.5588,0.42328 12.5625,1.28125 1.8234,0.42925 3.2709,1.17749 4.3438,2.25 1.1798,0.96559 1.781,2.31513 1.7812,4.03125 -2e-4,1.6092 -1.2027,3.70698 -3.5625,6.28125 l -3.5313,3.84375 c -1.2873,1.28738 -2.6369,2.58794 -4.0312,3.875 l -4.1875,3.875 -52.2813,50.499998 128.25,140.3125 10.9376,-9.15625 -98.625,-137.40625 49.2187,-49.906248 c 11.7993,-11.90663 26.5995,-18.81899 44.4063,-20.75 l 0,-13.03125 -85.2813,0 z m -392.90625,92.031248 0.3125,0.15625 -0.3125,0 0,56.96875 c -1.5e-4,6.54342 -0.50348,11.91031 -1.46875,16.09375 -0.96557,4.07623 -2.98311,7.29636 -6.09375,9.65625 -3.00366,2.35992 -7.34616,4.0346 -13.03125,5 -5.57809,0.85816 -12.39248,1.28126 -20.4375,1.28125 -8.04524,1e-5 -14.76167,-0.79721 -20.125,-2.40625 -17.2703,-4.93433 -25.90631,-15.94428 -25.90625,-33 -6e-5,-32.28774 29.03015,-50.16106 87.0625,-53.59375 l 0,-0.15625 z"
       style="font-size:329.52883911000003536px;font-style:normal;font-variant:normal;font-weight:normal;font-stretch:normal;text-align:center;line-height:125%;writing-mode:lr-tb;text-anchor:middle;fill:#eeeeec;fill-opacity:1;fill-rule:nonzero;stroke:none;font-family:Metamorphous;-inkscape-font-specification:Metamorphous"
       inkscape:connector-curvature="0" />
  </g>
</svg>
